<?xml version="1.0" encoding="UTF-8"?>
<svg width="800" height="600" viewBox="0 0 800 600" fill="none" xmlns="http://www.w3.org/2000/svg">
    <!-- Background Circles -->
    <g filter="url(#glow)">
        <circle cx="400" cy="300" r="200" fill="url(#circleGradient)" opacity="0.1"/>
        <circle cx="400" cy="300" r="150" fill="url(#circleGradient)" opacity="0.15"/>
        <circle cx="400" cy="300" r="100" fill="url(#circleGradient)" opacity="0.2"/>
    </g>

    <!-- User Card -->
    <g transform="translate(300, 150)" filter="url(#cardShadow)">
        <!-- Card Background -->
        <rect x="0" y="0" width="200" height="280" rx="20" fill="url(#cardGradient)"/>
        
        <!-- Profile Picture Circle -->
        <circle cx="100" cy="80" r="50" fill="url(#profileGradient)"/>
        <path d="M100 60c-11 0-20 9-20 20s9 20 20 20 20-9 20-20-9-20-20-20zm0 60c-33.3 0-60 13.3-60 30v10h120v-10c0-16.7-26.7-30-60-30z" 
              fill="white" fill-opacity="0.9"/>

        <!-- Form Lines -->
        <rect x="30" y="160" width="140" height="8" rx="4" fill="white" fill-opacity="0.3"/>
        <rect x="30" y="190" width="140" height="8" rx="4" fill="white" fill-opacity="0.3"/>
        <rect x="30" y="220" width="140" height="8" rx="4" fill="white" fill-opacity="0.3"/>
    </g>

    <!-- Floating Icons -->
    <g>
        <!-- Email Icon -->
        <g transform="translate(200, 250)" filter="url(#iconShadow)">
            <circle cx="0" cy="0" r="25" fill="url(#iconGradient1)"/>
            <path d="M-15 -5l15 10 15 -10v-5h-30z M-15 5v10h30v-10l-15 10z" 
                  fill="white" fill-opacity="0.9"/>
            <animateTransform attributeName="transform" type="translate"
                            values="200,250; 200,240; 200,250" dur="3s" repeatCount="indefinite"/>
        </g>

        <!-- Lock Icon -->
        <g transform="translate(550, 200)" filter="url(#iconShadow)">
            <circle cx="0" cy="0" r="25" fill="url(#iconGradient2)"/>
            <path d="M-10 -5v-5c0-5.5 4.5-10 10-10s10 4.5 10 10v5h5v20h-30v-20z" 
                  fill="white" fill-opacity="0.9"/>
            <animateTransform attributeName="transform" type="translate"
                            values="550,200; 550,190; 550,200" dur="2.5s" repeatCount="indefinite"/>
        </g>

        <!-- Check Icon -->
        <g transform="translate(500, 400)" filter="url(#iconShadow)">
            <circle cx="0" cy="0" r="25" fill="url(#iconGradient3)"/>
            <path d="M-12 0l8 8 16 -16" stroke="white" stroke-width="4" 
                  fill="none" stroke-linecap="round" stroke-linejoin="round"/>
            <animateTransform attributeName="transform" type="translate"
                            values="500,400; 500,390; 500,400" dur="3.5s" repeatCount="indefinite"/>
        </g>
    </g>

    <!-- Decorative Lines -->
    <g stroke="url(#linesGradient)" stroke-width="2" stroke-linecap="round" opacity="0.4">
        <path d="M150 150c100 0 150 50 200 100" />
        <path d="M650 450c-100 0 -150 -50 -200 -100" />
        <path d="M200 500c150 -100 250 -100 400 0" />
    </g>

    <!-- Definitions -->
    <defs>
        <linearGradient id="circleGradient" x1="0%" y1="0%" x2="100%" y2="100%">
            <stop offset="0%" stop-color="#c4b5fd"/>
            <stop offset="100%" stop-color="#8b5cf6"/>
        </linearGradient>

        <linearGradient id="cardGradient" x1="0%" y1="0%" x2="100%" y2="100%">
            <stop offset="0%" stop-color="#8b5cf6"/>
            <stop offset="100%" stop-color="#6d28d9"/>
        </linearGradient>

        <linearGradient id="profileGradient" x1="0%" y1="0%" x2="100%" y2="100%">
            <stop offset="0%" stop-color="#a78bfa"/>
            <stop offset="100%" stop-color="#7c3aed"/>
        </linearGradient>

        <linearGradient id="iconGradient1" x1="0%" y1="0%" x2="100%" y2="100%">
            <stop offset="0%" stop-color="#818cf8"/>
            <stop offset="100%" stop-color="#4f46e5"/>
        </linearGradient>

        <linearGradient id="iconGradient2" x1="0%" y1="0%" x2="100%" y2="100%">
            <stop offset="0%" stop-color="#34d399"/>
            <stop offset="100%" stop-color="#059669"/>
        </linearGradient>

        <linearGradient id="iconGradient3" x1="0%" y1="0%" x2="100%" y2="100%">
            <stop offset="0%" stop-color="#f472b6"/>
            <stop offset="100%" stop-color="#db2777"/>
        </linearGradient>

        <linearGradient id="linesGradient" x1="0%" y1="0%" x2="100%" y2="0%">
            <stop offset="0%" stop-color="#c4b5fd" stop-opacity="0"/>
            <stop offset="50%" stop-color="#8b5cf6"/>
            <stop offset="100%" stop-color="#c4b5fd" stop-opacity="0"/>
        </linearGradient>

        <filter id="glow" x="-20%" y="-20%" width="140%" height="140%">
            <feGaussianBlur in="SourceGraphic" stdDeviation="20"/>
        </filter>

        <filter id="cardShadow" x="-20%" y="-20%" width="140%" height="140%">
            <feGaussianBlur in="SourceAlpha" stdDeviation="15"/>
            <feOffset dx="0" dy="10"/>
            <feComposite in2="SourceAlpha" operator="arithmetic" k2="-1" k3="1"/>
            <feColorMatrix values="0 0 0 0 0.545   0 0 0 0 0.361   0 0 0 0 0.965  0 0 0 0.4 0"/>
        </filter>

        <filter id="iconShadow" x="-50%" y="-50%" width="200%" height="200%">
            <feGaussianBlur in="SourceAlpha" stdDeviation="5"/>
            <feOffset dx="0" dy="5"/>
            <feComposite in2="SourceAlpha" operator="arithmetic" k2="-1" k3="1"/>
            <feColorMatrix values="0 0 0 0 0.545   0 0 0 0 0.361   0 0 0 0 0.965  0 0 0 0.3 0"/>
        </filter>
    </defs>
</svg> 